<svg width="596" height="500" viewBox="0 0 596 500" fill="none" xmlns="http://www.w3.org/2000/svg">
<g clip-path="url(#clip0_777_788)">
<path d="M495.345 152.084C480.006 137.256 485.46 114.247 485.46 114.247C446.259 112.202 454.781 81.012 454.781 81.012C449.497 80.501 430.068 84.762 394.617 70.786C354.223 54.254 305.819 53.572 297.127 53.572C288.435 53.572 240.201 54.254 199.807 70.786C164.356 84.762 145.097 80.501 139.643 81.012C139.643 81.012 148.165 112.202 108.964 114.247C108.964 114.247 114.418 137.256 99.0791 152.084C85.1031 165.719 68.4001 195.204 84.2511 220.6C84.2511 220.6 65.6731 246.336 93.2841 281.787C114.248 306.5 108.282 316.045 107.771 326.953C107.771 326.953 144.245 327.976 140.495 360.188C140.495 360.188 178.673 357.461 208.158 374.164C236.962 390.356 278.889 389.844 296.956 389.674C315.022 389.674 356.95 390.356 385.754 374.164C415.24 357.461 453.418 360.188 453.418 360.188C449.668 327.975 486.142 326.953 486.142 326.953C485.631 316.215 479.665 306.501 500.629 281.787C528.24 246.336 509.662 220.6 509.662 220.6C525.853 195.204 509.32 165.719 495.345 152.084Z" fill="#08713D"/>
<path d="M302.41 379.958H297.297H292.184C269.686 379.958 237.133 378.424 213.613 365.13C192.82 353.37 167.254 352.177 157.028 352.177C153.619 352.177 151.574 352.347 151.404 352.347L149.359 352.517L149.529 350.472C150.381 342.802 148.847 336.326 144.586 331.553C136.235 322.009 120.725 321.327 120.554 321.327H118.85V319.623C118.85 317.919 119.191 316.385 119.361 314.68C120.554 306.329 121.577 297.466 105.726 278.718C82.3762 248.721 93.6252 225.542 96.5222 220.599C81.5242 195.033 99.5902 167.082 111.18 155.663C124.645 142.539 119.872 122.257 119.872 121.916L119.361 119.871L121.406 119.701C132.825 119.019 140.836 115.611 145.267 109.645C151.232 101.464 148.335 91.0671 148.335 90.8971L147.824 89.0221L149.869 88.8521C150.892 88.6821 152.255 88.8521 154.13 88.8521C155.834 88.8521 157.88 89.0221 160.266 89.0221C174.242 89.0221 189.07 85.9541 205.432 79.4781C242.928 64.1391 287.753 63.2861 296.445 63.2861H297.297C305.989 63.2861 350.814 64.1381 388.31 79.4781C404.672 85.9551 419.5 89.0221 433.476 89.0221C435.862 89.0221 437.907 88.8521 439.612 88.8521C441.487 88.6821 442.85 88.6821 443.873 88.8521L445.918 89.0221L445.407 90.8971C445.407 91.0671 442.68 101.464 448.475 109.645C452.906 115.781 460.917 119.189 472.336 119.701L474.381 119.871L473.87 121.916C473.87 122.086 469.098 142.539 482.562 155.663C494.322 167.082 512.218 195.204 497.22 220.599C500.117 225.542 511.366 248.721 488.016 278.718C471.995 297.466 473.188 306.158 474.381 314.68C474.551 316.384 474.892 317.918 474.892 319.623L475.062 321.327H473.358C473.188 321.327 457.678 321.838 449.326 331.553C445.236 336.325 443.531 342.802 444.383 350.472L444.553 352.517L442.508 352.347C442.508 352.347 440.463 352.177 436.884 352.177C426.828 352.177 401.092 353.37 380.299 365.13C357.632 378.424 324.908 379.958 302.41 379.958ZM297.297 376.549H302.41C316.556 376.549 353.882 376.549 379.277 362.232C400.752 350.131 427.17 348.938 437.396 348.938C438.93 348.938 440.293 348.938 441.146 348.938C440.635 341.098 442.68 334.451 447.111 329.338C454.781 320.475 467.223 318.6 471.824 318.089C471.654 317.066 471.654 316.044 471.483 315.021C470.29 306.329 469.097 296.443 485.97 276.502C510.683 244.971 494.492 221.792 494.321 221.451L493.639 220.599L494.15 219.576C508.978 195.715 491.764 168.786 480.515 157.878C468.073 145.777 469.607 128.733 470.63 122.938C459.04 121.915 450.859 118.166 446.087 111.519C440.974 104.361 441.485 95.8391 441.997 91.9191C441.486 91.9191 440.804 91.9191 440.122 91.9191C438.418 91.9191 436.372 92.0891 433.816 92.0891C419.329 92.0891 404.16 88.8511 387.287 82.2041C350.302 67.0351 305.989 66.3531 297.467 66.3531H296.615C288.093 66.3531 243.78 67.0351 206.965 82.2041C190.092 88.8511 174.923 92.0891 160.436 92.0891C157.879 92.0891 155.834 91.9191 154.13 91.9191C153.448 91.9191 152.767 91.9191 152.255 91.9191C152.937 95.8391 153.448 104.19 148.165 111.519C143.393 118.166 135.212 121.916 123.622 122.938C124.474 128.733 126.008 145.777 113.566 157.878C102.317 168.786 85.1032 195.715 99.9312 219.576L100.442 220.599L99.7602 221.451C99.0782 222.474 83.5682 244.971 108.282 276.502C125.155 296.273 123.792 306.158 122.599 315.021C122.429 316.044 122.258 317.066 122.258 318.089C126.86 318.6 139.302 320.475 146.971 329.338C151.402 334.451 153.448 341.098 152.936 348.938C153.959 348.938 155.152 348.938 156.686 348.938C167.083 348.938 193.5 350.301 214.805 362.232C240.2 376.549 277.696 376.549 291.672 376.549H297.297Z" fill="white"/>
<path d="M60.389 317.408C60.389 325.248 59.196 332.747 57.151 339.906C119.531 326.782 204.409 318.772 297.638 318.772C391.037 318.772 475.745 326.783 538.125 339.906C536.08 332.748 534.887 325.248 534.887 317.408C534.887 294.74 544.602 274.117 560.112 259.459C496.369 243.438 402.458 233.212 297.639 233.212C192.82 233.212 98.909 243.438 35.166 259.459C50.675 274.117 60.389 294.74 60.389 317.408Z" fill="#08713D"/>
<path d="M297.638 323.714C389.163 323.714 473.018 329.85 538.806 339.905C478.301 326.1 392.571 317.407 297.638 317.407C202.705 317.407 116.975 326.1 56.4692 339.906C122.258 329.679 206.113 323.714 297.638 323.714Z" fill="white"/>
<path d="M297.638 240.029C397.003 240.029 488.187 247.358 559.6 259.459C493.811 242.756 400.753 232.189 297.638 232.189C194.523 232.189 101.465 242.586 35.6758 259.459C107.089 247.358 198.273 240.029 297.638 240.029Z" fill="white"/>
<path d="M92.6019 298.83L93.9659 307.863C94.1359 308.715 94.3069 309.397 94.3069 310.079C94.4769 311.102 94.6479 311.783 94.8179 311.954C94.9879 312.465 95.4999 312.977 96.1819 313.317C96.5229 313.487 97.7159 313.658 99.5909 313.828C100.954 313.998 101.807 314.339 101.977 315.021C102.147 315.873 101.636 316.555 100.443 316.725L89.0239 318.088L78.6269 319.963C77.4339 320.133 76.7519 319.793 76.5819 318.77C76.5819 318.259 76.5819 317.918 76.9229 317.577C77.2639 317.236 77.7749 317.066 78.2869 316.895C81.0139 316.213 82.3769 314.85 82.3769 312.975C82.3769 312.464 82.3769 311.782 82.2069 310.93L77.9459 282.467C77.6049 280.422 77.2639 279.229 76.7529 278.547C76.0709 277.695 74.8779 277.354 73.0029 277.524C72.8329 277.524 72.1509 277.524 70.9579 277.524C70.6169 277.354 70.4469 277.183 70.4469 276.672C70.2769 275.649 70.7879 275.138 71.9809 274.968C71.9809 274.968 72.8329 274.798 74.7079 274.627C75.3899 274.457 76.2419 274.457 77.0939 274.286C77.7759 274.116 79.3099 273.945 81.5249 273.775C82.5479 273.605 83.9109 273.434 85.6149 273.093C87.6599 272.752 89.0239 272.411 89.7049 272.411C90.5569 272.241 91.7499 272.07 93.4549 271.729C95.1589 271.388 96.3519 271.218 97.2049 271.047C100.273 270.536 102.318 270.536 103.682 270.536C105.386 270.536 107.091 271.047 108.795 271.729C113.056 273.604 115.442 276.672 116.124 280.933C116.465 283.319 116.124 285.535 115.272 287.921C114.42 290.307 113.056 292.182 111.182 293.886C109.307 295.42 106.751 296.613 103.683 297.124L102.149 297.294C101.638 297.294 101.126 297.294 100.274 297.294C99.5919 297.294 98.9109 297.124 98.2289 297.124C98.2289 297.124 97.5469 297.124 96.5249 296.954C94.9909 296.784 93.9679 296.784 93.6279 296.784C93.1169 296.784 92.9459 297.125 92.7759 297.807L92.6019 298.83ZM91.5789 291.331C91.7489 292.695 92.0899 293.547 92.4309 293.717C93.2829 294.228 94.6469 294.399 96.5209 294.058C100.271 293.547 102.657 291.331 103.339 287.922C103.68 286.388 103.68 284.854 103.509 283.15C103.168 280.593 101.975 278.378 100.1 276.673C98.2249 274.969 96.0099 274.287 93.2829 274.798C91.7489 274.968 90.7259 275.65 90.2149 276.502C89.7039 277.525 89.5329 278.718 89.8739 280.422L91.5789 291.331Z" fill="white"/>
<path d="M157.539 288.604C157.539 287.752 157.369 287.411 157.369 287.241C157.199 286.9 156.858 286.73 156.176 286.9L140.325 288.604C139.814 288.604 139.643 288.774 139.473 288.945C139.303 289.115 139.303 289.627 139.303 290.479C139.303 290.649 139.303 290.99 139.473 291.502L140.666 301.558C140.666 302.24 140.836 302.751 140.836 303.092C141.006 303.944 141.177 304.967 141.688 306.16C141.858 307.183 143.392 307.694 146.119 307.864C147.482 307.864 148.335 308.205 148.505 309.227C148.675 310.079 148.164 310.761 146.971 310.931L135.552 311.954L124.985 313.488C123.792 313.658 123.11 313.318 122.94 312.295C122.94 311.784 123.11 311.443 123.451 311.102C123.792 310.761 124.303 310.591 124.814 310.591C127.541 310.08 128.904 308.716 128.904 306.841C128.904 306.33 128.904 305.648 128.904 304.796L125.836 276.333C125.666 274.458 125.154 273.095 124.643 272.413C124.132 271.731 122.768 271.22 121.064 271.22C120.212 271.22 119.53 271.22 119.189 271.05C118.848 270.88 118.507 270.539 118.337 270.027C118.337 269.516 118.337 269.004 118.678 268.834C119.019 268.664 119.36 268.493 119.871 268.493C120.382 268.493 122.257 268.323 126.007 267.982L131.461 267.471C132.143 267.471 132.995 267.301 134.188 267.13C135.381 266.96 136.233 266.789 136.745 266.789C137.257 266.789 138.108 266.619 139.302 266.448C140.495 266.278 141.347 266.107 142.029 266.107C143.052 265.937 143.733 266.277 143.904 267.13C144.074 267.641 143.904 267.982 143.734 268.153C143.564 268.323 143.223 268.494 143.052 268.664C142.029 269.005 140.666 269.516 138.962 270.368C138.11 271.05 137.939 273.095 138.28 276.504L138.962 283.492C139.132 284.685 139.132 285.196 139.303 285.367C139.473 285.708 140.155 285.878 141.178 285.878C141.348 285.878 141.689 285.878 141.86 285.878L155.154 284.344C156.177 284.174 156.858 284.003 157.029 283.833C157.37 283.663 157.37 283.151 157.199 282.299L156.176 272.925C155.835 270.368 155.324 268.835 154.301 268.323C153.79 267.982 152.938 267.812 151.744 267.812C150.551 267.642 149.699 267.642 149.358 267.471C149.017 267.301 148.676 266.96 148.676 266.619C148.506 265.596 149.017 265.085 150.21 265.085L161.629 264.062L172.196 262.528C173.389 262.358 174.241 262.698 174.241 263.721C174.241 264.232 173.559 264.914 172.196 265.425C171.003 265.766 170.151 265.936 169.639 266.277C168.787 266.788 168.276 267.47 168.105 268.152C168.105 268.322 168.105 268.834 168.105 269.515C168.105 270.197 168.105 270.878 168.105 271.39L168.275 272.924L171.172 298.66C171.172 299.342 171.342 299.853 171.342 300.023C171.512 301.557 172.024 302.75 172.705 303.773C173.216 304.284 174.409 304.796 176.455 304.966C178.159 304.966 179.012 305.307 179.182 306.329C179.182 307.011 179.012 307.352 178.671 307.522C178.33 307.692 177.648 307.863 176.626 308.033L166.059 308.885L155.321 310.419C154.128 310.589 153.446 310.249 153.276 309.226C153.276 308.544 153.787 308.033 155.321 307.351C156.344 307.01 157.196 306.499 158.218 306.158C158.729 305.647 159.241 305.135 159.241 304.624C159.411 304.113 159.411 303.09 159.241 301.727L157.539 288.604Z" fill="white"/>
<path d="M185.149 269.174C184.979 267.299 184.638 266.106 184.126 265.595C183.444 264.913 182.251 264.402 180.376 264.402C179.694 264.402 179.183 264.232 178.672 264.061C178.161 263.891 177.99 263.55 177.99 263.038C177.99 262.186 178.501 261.675 179.694 261.504C182.932 261.334 184.807 261.163 185.489 261.163C187.193 260.993 188.898 260.993 191.113 260.993C191.965 260.993 194.522 260.652 198.953 260.311C199.464 260.311 200.487 260.141 201.85 259.97C203.043 259.8 203.725 260.311 203.725 261.163C203.725 261.845 203.214 262.356 201.85 262.697C199.293 263.208 197.93 264.06 197.589 265.254C197.419 266.447 197.248 267.64 197.419 268.663C197.419 269.004 197.419 269.515 197.589 270.197L198.782 287.07C198.782 288.263 198.952 288.945 198.952 289.456C199.122 292.183 199.634 294.74 200.315 296.785C200.997 299.001 202.531 300.535 204.746 301.557C206.791 302.409 209.007 302.921 211.563 302.75C214.46 302.58 217.017 301.727 219.062 300.364C221.619 298.83 222.982 296.785 223.323 294.228C223.493 292.865 223.493 290.819 223.323 287.922L221.96 269.515C221.79 267.64 221.79 266.447 221.619 265.936C221.278 264.573 220.767 263.55 219.915 262.868C219.063 262.186 218.04 262.016 216.677 262.016H215.314C214.973 262.016 214.462 262.016 214.121 261.846C213.951 261.676 213.78 261.335 213.61 260.823C213.61 260.312 213.78 259.8 214.121 259.63C214.462 259.46 215.144 259.289 216.166 259.289L229.46 258.437C230.483 258.437 231.164 258.778 231.164 259.63C231.164 260.482 230.482 261.164 228.778 261.334C226.733 261.504 225.54 262.697 225.369 264.572C225.199 265.424 225.199 266.958 225.369 269.003L226.732 289.455C227.073 294.739 226.05 298.488 223.494 300.874C220.085 304.112 215.143 305.987 208.666 306.498C197.417 307.35 190.6 304.794 188.214 298.828C187.191 296.442 186.68 294.056 186.51 291.329L185.149 269.174Z" fill="white"/>
<path d="M280.594 264.231C280.594 264.401 280.594 264.913 280.764 265.424C280.764 266.276 280.253 266.787 279.401 266.787C278.89 266.787 277.867 266.276 276.674 264.912L275.481 263.208C274.118 261.333 272.243 259.97 270.027 259.118C268.834 258.607 267.3 258.436 265.596 258.607C262.358 258.777 259.631 259.8 257.074 261.675C254.688 263.55 252.984 265.936 251.62 269.004C250.257 272.072 249.745 275.651 249.745 279.742C249.745 281.276 249.915 282.639 250.086 283.662C250.427 287.582 251.961 291.161 254.347 294.4C257.585 298.661 261.676 300.706 266.789 300.536C272.073 300.366 276.163 297.127 279.06 290.651L279.912 289.458C280.082 289.288 280.423 289.117 280.935 289.117C281.958 289.117 282.469 289.628 282.469 290.992V292.015V295.083C282.469 295.594 282.469 296.106 282.299 296.787C282.299 297.298 282.129 297.639 281.958 297.98C281.788 298.491 281.106 299.173 280.083 299.684C276.163 302.07 271.561 303.434 265.766 303.604C254.006 303.945 245.314 300.366 240.03 292.866C239.178 291.673 238.496 290.48 237.814 288.946C236.621 286.389 235.939 283.662 235.939 280.935C235.769 276.163 237.132 271.731 239.859 267.982C242.416 264.232 245.995 261.335 250.767 259.29C255.539 257.245 260.482 256.052 265.765 255.881C270.026 255.711 273.776 256.051 277.014 256.904C278.037 257.074 278.548 257.415 278.889 257.756C279.059 258.097 279.4 258.779 279.571 259.801L280.594 264.231Z" fill="white"/>
<path d="M328.828 292.354C328.828 295.422 329.51 297.467 330.873 298.49C331.896 299.001 333.089 299.342 334.623 299.342C337.18 299.342 339.054 299.001 340.588 298.149C342.122 297.467 343.315 296.445 344.508 294.911L346.894 291.673C347.405 290.991 348.087 290.48 348.769 290.48C349.621 290.48 350.132 290.991 350.132 292.184C350.132 293.036 349.962 294.4 349.45 296.615L348.768 300.876C348.768 301.728 348.427 302.239 347.575 302.239L311.442 301.557C310.249 301.557 309.738 301.046 309.567 300.023C309.567 299.512 309.737 299.171 310.249 298.83C310.59 298.489 311.101 298.489 311.612 298.489C314.339 298.319 315.873 297.126 316.214 295.251C316.384 294.74 316.384 294.058 316.384 293.206L316.895 264.573C316.895 262.698 316.725 261.335 316.213 260.483C315.702 259.631 314.509 259.12 312.804 258.779C311.952 258.609 311.441 258.609 311.1 258.438C310.759 258.268 310.589 257.927 310.418 257.415C310.418 256.904 310.588 256.392 310.929 256.222C311.27 256.052 311.611 256.052 312.122 256.052C312.633 256.052 314.679 256.222 318.258 256.393L323.712 256.563C324.394 256.563 325.246 256.563 326.439 256.563C327.632 256.563 328.484 256.563 328.996 256.563C329.507 256.563 330.359 256.563 331.553 256.563C332.747 256.563 333.598 256.563 334.28 256.563C335.303 256.563 335.984 257.074 335.984 257.926C335.984 258.437 335.984 258.778 335.643 258.949C335.473 259.119 335.132 259.119 334.961 259.29C333.938 259.46 332.575 259.801 330.7 260.483C329.848 261.165 329.337 263.04 329.337 266.619L328.828 292.354Z" fill="white"/>
<path d="M353.712 279.741C354.053 274.798 355.757 270.537 358.825 266.788C361.722 263.209 365.643 260.482 370.415 258.777C373.653 257.584 377.232 257.073 381.152 257.414C386.436 257.755 391.378 259.118 395.639 261.675C400.241 264.402 403.479 268.152 405.524 272.753C406.887 275.821 407.399 279.059 407.228 282.638C407.058 286.899 405.694 290.649 403.478 294.057C401.092 297.466 398.024 300.193 394.274 302.068C390.013 304.284 385.241 305.136 379.957 304.795C371.606 304.284 365.129 301.557 360.357 296.444C358.141 294.058 356.437 291.331 355.414 288.433C354.052 285.877 353.541 282.809 353.712 279.741ZM366.835 278.378C366.494 282.468 367.005 286.218 368.198 289.968C369.221 293.206 370.755 295.933 372.629 298.149C374.845 300.706 377.572 302.069 380.81 302.239C385.923 302.58 389.673 299.512 392.4 293.376C393.593 290.649 394.275 287.411 394.445 283.661C394.786 278.037 393.934 272.753 391.718 268.151C389.161 262.867 385.582 259.97 380.81 259.629C375.697 259.288 371.777 262.186 369.05 268.662C367.687 271.731 367.006 274.799 366.835 278.378Z" fill="white"/>
<path d="M452.565 293.035L454.44 275.31C454.781 272.583 454.61 270.708 454.099 269.686C453.588 268.663 452.395 267.811 450.52 267.3L448.986 267.13C448.134 266.96 447.793 266.619 447.793 265.767C447.963 264.744 448.816 264.403 450.69 264.574L463.814 265.937C465.177 266.107 465.859 266.619 465.689 267.471C465.519 268.323 464.666 268.835 462.962 268.664H462.451C461.088 268.494 459.894 268.834 459.213 269.687C458.532 270.54 458.02 271.732 458.02 273.266C458.02 273.777 457.85 274.289 457.85 274.97L454.1 310.591C453.93 311.443 453.759 311.954 453.589 312.295C453.248 312.636 452.737 312.636 451.885 312.636C451.033 312.636 450.522 312.295 450.01 311.784C449.669 311.443 449.499 311.102 449.328 310.761C448.817 310.25 448.646 309.738 448.305 309.227L422.91 270.367L420.353 294.399C420.012 296.956 420.012 298.319 420.012 298.83C420.012 300.705 420.353 302.239 421.035 303.091C421.717 303.943 422.739 304.454 424.273 304.625C426.318 304.795 427.341 305.477 427.17 306.329C427 307.522 426.318 307.863 424.784 307.692L417.796 306.669L410.638 306.158C409.275 305.988 408.763 305.476 408.763 304.283C408.763 303.601 409.104 303.26 409.615 303.26C409.956 303.09 410.808 303.09 412.001 303.26C413.705 303.43 414.898 302.578 415.58 300.363C415.921 299.34 416.262 297.636 416.432 295.25L419.159 269.003C419.329 267.469 419.329 266.276 418.989 265.594C418.648 264.571 417.796 263.89 416.432 263.549L415.409 263.379C414.727 263.209 414.216 263.038 414.216 263.038C413.875 262.868 413.875 262.356 413.875 261.845C414.045 260.993 414.898 260.652 416.432 260.822L429.556 262.185C430.919 262.355 431.772 262.526 431.942 262.696C432.112 262.866 432.794 263.719 433.646 265.082L452.565 293.035Z" fill="white"/>
<path d="M513.752 304.114L512.9 313.658C512.9 314.34 511.877 315.192 510.173 316.044C508.81 316.726 506.594 317.407 503.526 317.748C500.458 318.089 497.22 317.918 493.811 317.407C488.698 316.555 484.267 315.021 480.346 312.805C475.915 310.248 472.506 307.01 470.461 303.09C468.416 299.17 467.734 294.909 468.416 290.137C468.927 286.387 470.291 283.149 472.506 280.422C475.744 276.332 480.176 273.434 485.63 271.73C490.743 270.026 496.197 269.685 501.651 270.537C502.503 270.707 503.014 270.878 503.696 270.878C505.23 271.219 506.934 271.73 508.98 272.412L511.366 273.264C512.9 273.946 514.093 274.457 514.434 275.139C514.434 275.309 514.434 275.821 514.604 276.673V279.059C514.604 279.741 514.604 280.423 514.604 281.275C514.604 281.957 514.604 282.468 514.604 282.638C514.434 283.661 513.752 284.172 512.729 284.001C512.047 283.831 511.195 282.808 510.002 280.592C508.468 277.865 507.616 276.331 507.275 275.99C506.082 274.797 504.037 273.945 501.139 273.433C497.73 272.922 494.833 273.263 492.276 274.796C486.822 277.693 483.584 283.147 482.22 291.158C481.879 293.374 481.709 295.76 481.879 298.316C482.049 300.873 482.561 303.088 483.413 305.474C485.288 310.758 489.208 313.825 494.832 314.678C497.218 315.019 498.922 314.848 499.945 313.996C500.627 313.314 501.138 311.61 501.479 309.224L501.99 306.327C502.331 304.111 502.501 302.748 502.501 302.407C502.501 300.703 502.16 299.51 501.478 298.998C500.626 298.316 499.433 297.975 497.728 297.635C496.365 297.465 495.683 296.783 495.853 295.76C496.023 294.567 497.046 294.226 499.091 294.567L518.862 297.124C520.055 297.294 520.566 297.976 520.396 298.828C520.226 299.68 519.373 300.191 517.839 300.191C516.305 300.361 515.282 300.532 514.771 301.043C514.434 301.387 514.093 302.409 513.752 304.114Z" fill="white"/>
<path d="M180.036 414.046H176.798C168.617 414.046 162.481 419.841 162.481 427.511C162.481 436.885 169.639 440.976 174.923 440.976H180.036V445.578H174.923C164.867 445.578 157.368 437.908 157.368 427.512C157.368 418.82 164.526 409.446 176.287 409.446H180.037L180.036 414.046Z" fill="#08713D"/>
<path d="M195.716 420.352C202.533 420.352 208.499 425.636 208.499 433.305C208.499 440.975 202.534 446.258 195.716 446.258C188.898 446.258 182.933 440.974 182.933 433.305C182.763 425.635 188.729 420.352 195.716 420.352ZM195.716 441.827C200.488 441.827 203.897 438.248 203.897 433.305C203.897 428.192 200.488 424.783 195.716 424.783C190.944 424.783 187.535 428.362 187.535 433.305C187.535 438.418 190.944 441.827 195.716 441.827Z" fill="#08713D"/>
<path d="M212.76 445.747V418.648C212.76 413.024 216.339 409.615 221.452 409.615H225.202V413.876H221.964C218.896 413.876 217.192 415.239 217.192 418.478V420.864H224.691V425.125H217.192V445.577H212.761V445.747H212.76Z" fill="#08713D"/>
<path d="M227.077 445.747V418.648C227.077 413.024 230.827 409.615 235.769 409.615H239.519V413.876H236.281C233.213 413.876 231.509 415.239 231.509 418.478V420.864H239.008V425.125H231.509V445.577H227.078V445.747H227.077Z" fill="#08713D"/>
<path d="M248.381 437.566L246.506 433.987L258.777 427.169C257.243 425.635 255.88 424.783 253.153 424.783C248.381 424.783 244.972 428.362 244.972 433.305C244.972 438.418 248.381 441.827 253.153 441.827C258.607 441.827 260.482 438.589 261.504 434.157L266.106 434.668C265.595 441.145 260.311 446.258 253.153 446.258C246.336 446.258 240.37 440.974 240.37 433.305C240.37 425.635 246.335 420.352 253.153 420.352C258.948 420.352 262.868 423.42 265.084 428.192L248.381 437.566Z" fill="#08713D"/>
<path d="M277.015 437.566L275.14 433.987L287.411 427.169C285.877 425.635 284.514 424.783 281.787 424.783C277.015 424.783 273.606 428.362 273.606 433.305C273.606 438.418 277.015 441.827 281.787 441.827C287.241 441.827 289.116 438.589 290.138 434.157L294.74 434.668C294.229 441.145 288.945 446.258 281.787 446.258C274.97 446.258 269.004 440.974 269.004 433.305C269.004 425.635 274.969 420.352 281.787 420.352C287.582 420.352 291.502 423.42 293.718 428.192L277.015 437.566Z" fill="#08713D"/>
<path d="M335.986 414.046H321.669C320.817 414.046 320.646 414.387 320.646 414.728C320.646 415.239 321.157 415.921 321.839 416.773L336.837 436.032C337.689 434.839 338.03 433.475 338.03 431.43C338.03 428.873 337.178 426.658 334.621 423.76L337.859 420.351C341.097 423.589 342.802 426.828 342.802 431.429C342.802 434.667 341.779 437.565 340.075 440.121L344.336 445.575H338.371L336.496 443.53C333.939 445.405 330.36 446.087 327.292 446.087C318.77 446.087 312.123 439.951 312.123 431.429C312.123 426.657 314.168 422.055 318.259 419.328C317.066 417.965 315.702 416.09 315.702 414.215C315.702 410.977 318.088 409.272 320.986 409.272H335.984V414.046H335.986ZM321.158 423.249C318.601 425.124 317.068 428.192 317.068 431.43C317.068 437.225 321.329 441.656 327.124 441.656C329.681 441.656 331.726 441.145 333.771 439.611L321.158 423.249Z" fill="#08713D"/>
<path d="M359.336 409.614H382.004V414.216H373.141V445.747H368.369V414.216H359.506V409.614H359.336Z" fill="#08713D"/>
<path d="M391.719 437.566L389.844 433.987L402.115 427.169C400.581 425.635 399.218 424.783 396.491 424.783C391.719 424.783 388.31 428.362 388.31 433.305C388.31 438.418 391.719 441.827 396.491 441.827C401.945 441.827 403.82 438.589 404.842 434.157L409.444 434.668C408.933 441.145 403.649 446.258 396.491 446.258C389.674 446.258 383.708 440.974 383.708 433.305C383.708 425.635 389.673 420.352 396.491 420.352C402.286 420.352 406.206 423.42 408.422 428.192L391.719 437.566Z" fill="#08713D"/>
<path d="M432.965 445.747V431.771C432.965 427.169 429.045 424.783 424.954 424.783C420.011 424.783 416.773 428.703 416.773 433.475C416.773 438.077 420.182 441.997 424.954 441.997C427.511 441.997 429.726 440.463 431.26 438.588V444.042C429.385 445.405 427.681 446.428 424.613 446.428C417.455 446.428 412.512 440.463 412.512 433.304C412.512 426.316 417.284 420.692 425.295 420.692C432.965 420.692 437.737 425.294 437.737 432.452V445.917H432.965V445.747Z" fill="#08713D"/>
<path d="M224.179 353.37C224.589 352.604 224.52 352.007 224.861 352.007C225.031 352.007 225.372 352.177 225.372 352.348C225.542 352.518 225.542 352.859 225.713 353.371C226.054 354.223 226.054 354.564 226.054 354.564C226.224 355.075 226.565 355.416 226.736 355.587C227.247 356.269 228.27 356.61 229.633 356.61C230.656 356.61 231.508 356.44 232.19 355.928C233.042 355.417 233.383 354.565 233.383 353.712C233.383 352.689 232.872 351.837 231.849 351.326C231.338 350.985 230.656 350.815 229.974 350.474L228.44 349.792C227.247 349.281 226.224 348.599 225.372 347.747C224.69 347.065 224.349 346.213 224.349 345.02C224.349 343.997 224.69 342.975 225.542 341.952C226.224 341.1 227.076 340.418 228.269 340.077C229.462 339.566 230.485 339.395 231.678 339.395C233.212 339.395 234.405 339.565 235.428 340.077C235.769 340.077 235.769 340.418 235.769 340.929V343.486C235.769 343.997 235.599 344.338 235.258 344.338C234.917 344.338 234.576 344.168 234.406 343.656C233.895 341.611 232.702 340.588 231.168 340.588C230.316 340.588 229.634 340.758 228.952 341.27C228.27 341.781 227.929 342.463 227.929 343.145C227.929 343.997 228.44 344.679 229.292 345.19C229.462 345.19 230.315 345.531 232.019 346.213C233.723 346.724 234.916 347.406 235.598 348.088C236.45 348.94 236.961 350.133 236.961 351.667C236.961 353.883 235.768 355.757 233.552 356.951C232.529 357.633 231.166 357.803 229.632 357.803C228.95 357.803 228.098 357.633 227.246 357.462C226.223 357.292 225.371 357.121 224.86 356.78C224.519 356.61 224.349 356.439 224.178 356.269C224.099 356.104 224.008 355.928 224.008 355.928C224.008 355.758 224.008 355.587 224.008 355.417V355.076C224.008 355.076 223.845 353.889 224.008 353.542C224.035 353.486 224.151 353.423 224.179 353.37Z" fill="white"/>
<path d="M241.564 348.768C241.564 348.257 241.564 347.916 241.394 347.745C241.224 347.575 240.712 347.234 240.371 347.234H240.201C240.031 347.234 239.86 347.234 239.69 347.064C239.69 347.064 239.52 346.894 239.52 346.723C239.52 346.382 239.861 346.212 240.713 346.041C241.395 345.871 242.076 345.7 242.758 345.359C242.928 345.189 243.44 345.018 244.121 344.336C244.632 343.825 245.144 343.654 245.484 343.654C245.654 343.654 245.825 343.654 245.825 343.824C245.825 344.165 245.825 344.335 245.825 344.676V353.709C245.825 354.05 245.825 354.22 245.825 354.561C245.825 354.731 245.825 354.902 245.825 355.072C245.825 355.413 245.995 355.754 246.166 355.924C246.336 355.924 246.507 356.094 246.677 356.094L247.529 356.264C247.699 356.264 247.87 356.264 248.04 356.434C248.04 356.434 248.21 356.604 248.21 356.775C248.21 357.116 247.869 357.286 247.358 357.286H240.37C239.688 357.286 239.518 357.116 239.518 356.775C239.518 356.605 239.518 356.434 239.688 356.264C239.845 356.191 239.877 356.154 240.029 356.094C240.199 356.094 240.37 356.094 240.37 356.094C240.54 356.094 240.711 356.094 240.711 356.094C241.052 356.094 241.393 355.924 241.393 355.753C241.563 355.412 241.563 354.73 241.563 353.537L241.564 348.768ZM241.053 340.587C241.053 339.905 241.394 339.394 241.905 339.053C242.416 338.712 242.928 338.542 243.609 338.542C244.29 338.542 244.802 338.712 245.313 339.053C245.824 339.394 245.995 339.905 245.995 340.587C245.995 341.269 245.825 341.78 245.313 342.291C244.802 342.632 244.29 342.973 243.438 342.973C242.756 342.973 242.245 342.803 241.734 342.291C241.223 341.951 241.053 341.269 241.053 340.587Z" fill="white"/>
<path d="M264.743 348.768C264.743 348.768 264.743 349.45 264.743 350.984V353.2V354.563C264.743 355.074 264.743 355.245 264.743 355.415C264.743 355.585 264.913 355.756 265.084 355.926C265.254 355.926 265.595 356.096 266.107 356.096C266.277 356.096 266.448 356.096 266.618 356.266C266.788 356.436 266.788 356.607 266.788 356.607C266.788 356.948 266.447 357.118 265.936 357.118H259.289C258.778 357.118 258.437 356.948 258.437 356.607C258.437 356.437 258.607 356.096 258.948 356.096C259.63 355.926 259.8 355.755 259.8 355.755C259.97 355.585 260.141 355.414 260.141 355.244C260.141 355.074 260.141 354.733 260.141 354.221V352.687V349.278C260.141 347.062 259.289 345.869 257.755 345.869C256.903 345.869 256.221 346.21 255.71 346.551C255.369 346.721 255.199 347.062 255.199 347.233C255.199 347.403 255.029 347.915 255.029 348.426V354.221C255.029 354.562 255.029 355.073 255.199 355.244C255.369 355.585 255.71 355.755 256.562 356.096C256.903 356.096 257.073 356.266 257.073 356.607C257.073 356.948 256.903 357.118 256.391 357.118H249.574C248.892 357.118 248.722 356.948 248.722 356.607C248.722 356.266 248.892 356.096 249.404 356.096C249.915 355.926 250.427 355.926 250.597 355.755C250.767 355.585 250.938 355.414 250.938 355.073C250.938 354.562 250.938 354.05 250.938 353.369V348.767C250.938 348.256 250.938 347.915 250.768 347.744C250.598 347.574 250.257 347.403 249.745 347.403C249.575 347.403 249.404 347.403 249.234 347.403C248.893 347.403 248.723 347.233 248.723 347.062C248.723 346.892 248.893 346.721 249.064 346.551C249.064 346.551 249.242 346.432 249.405 346.381C249.56 346.332 249.676 346.295 249.916 346.211C250.427 346.041 251.109 345.87 251.791 345.529C252.473 345.188 253.154 344.847 253.495 344.336C253.836 343.995 254.177 343.825 254.518 343.825C254.859 343.825 254.859 344.166 254.859 344.848V346.041C255.541 345.53 256.393 345.018 257.416 344.507C258.098 344.166 258.779 344.166 259.632 344.166C260.995 344.166 262.189 344.507 263.211 345.359C263.722 345.7 264.063 346.211 264.234 346.722C264.573 347.064 264.743 347.916 264.743 348.768Z" fill="white"/>
<path d="M272.243 349.791C272.243 350.814 272.413 351.666 272.925 352.688C273.436 353.54 273.948 354.222 274.8 354.904C275.652 355.415 276.504 355.756 277.357 355.756C278.21 355.756 279.061 355.586 279.914 355.074C280.255 354.904 280.425 354.733 280.596 354.733C280.766 354.733 280.937 354.903 280.937 355.074C280.937 355.926 280.085 356.608 278.21 357.29C277.358 357.631 276.506 357.801 275.483 357.801C272.586 357.801 270.54 356.778 269.006 354.904C268.324 353.881 267.983 352.688 267.983 351.154C267.983 350.131 268.153 349.109 268.835 348.257C269.517 347.064 270.71 346.041 272.244 345.36C273.607 344.678 275.141 344.337 276.675 344.337C278.038 344.337 279.232 344.678 280.084 345.189C280.254 345.359 280.595 345.359 280.766 345.53C280.936 345.7 280.936 346.041 280.936 346.382C280.936 346.893 280.936 347.405 280.766 347.916C280.596 348.598 280.255 348.939 279.914 348.939C279.573 348.939 279.232 348.769 279.062 348.598C279.19 348.217 278.595 346.62 277.742 346.03C277.329 345.763 276.676 345.53 276.335 345.53C275.142 345.53 274.46 346.128 273.422 347.098C272.584 347.878 272.243 348.939 272.243 349.791Z" fill="white"/>
<path d="M287.241 349.62C287.241 349.62 287.071 349.961 287.071 350.131C287.071 350.983 287.274 352.067 287.686 352.74C288.123 353.493 288.776 354.221 289.457 354.732C290.139 355.243 290.991 355.414 292.014 355.414C292.866 355.414 293.889 355.073 294.911 354.391C295.252 354.221 295.593 354.05 295.763 354.05C295.933 354.05 295.933 354.05 296.104 354.22C296.274 354.22 296.274 354.39 296.274 354.39C296.274 354.901 295.763 355.413 294.74 355.924C294.058 356.435 293.377 356.776 292.695 356.947C291.843 357.288 290.991 357.458 290.138 357.458C288.945 357.458 287.752 357.117 286.559 356.606C285.366 356.095 284.514 355.243 283.832 354.22C283.15 353.197 282.809 352.004 282.809 350.47C282.809 348.595 283.491 347.061 285.025 345.868C286.559 344.675 288.263 343.993 290.479 343.993C291.331 343.993 292.183 344.163 293.206 344.504C294.058 344.845 294.91 345.356 295.422 345.867C296.104 346.549 296.445 347.23 296.445 348.253C296.445 348.764 296.275 348.935 296.104 349.105C295.933 349.275 295.593 349.275 294.911 349.275H287.753C287.752 349.28 287.241 349.45 287.241 349.62ZM287.412 348.086C287.412 348.256 287.429 348.353 287.582 348.427C287.732 348.499 287.923 348.597 288.264 348.597C288.946 348.597 289.287 348.597 289.627 348.597H290.82C291.161 348.597 291.502 348.427 291.843 348.256C292.184 348.086 292.184 347.745 292.184 347.233C292.184 346.721 292.014 346.21 291.673 345.87C291.332 345.529 290.821 345.359 290.31 345.359C289.458 345.359 288.776 345.7 288.094 346.211C287.752 346.553 287.412 347.234 287.412 348.086Z" fill="white"/>
<path d="M311.614 342.121C311.444 342.121 310.932 342.291 310.08 342.462C309.398 342.632 308.887 342.803 308.376 342.803C308.035 342.803 307.694 342.633 307.694 342.292C307.694 341.951 308.035 341.61 308.887 341.44C309.228 341.27 309.398 341.27 309.569 341.27C312.126 340.759 314 340.077 315.534 339.395C315.704 339.225 315.875 339.225 316.045 339.225C316.386 339.225 316.556 339.566 316.556 340.418V353.2C316.556 353.541 316.556 353.711 316.556 353.882C316.556 354.393 316.556 354.905 316.726 355.416C316.726 355.586 316.896 355.757 317.237 355.927C317.578 356.097 317.919 356.097 318.43 356.097C318.941 356.097 319.282 356.097 319.623 356.267C319.793 356.267 319.964 356.437 319.964 356.778C319.964 357.289 319.623 357.46 318.941 357.46L316.725 357.29C316.043 357.29 314.988 357.32 313.587 357.225L311.612 357.29L309.567 357.46C308.885 357.46 308.715 357.29 308.715 356.778C308.715 356.437 308.885 356.267 309.226 356.267C309.396 356.267 309.567 356.267 310.078 356.267C310.93 356.267 311.441 356.097 311.782 355.926C312.293 355.585 312.464 355.244 312.464 354.392V343.143C312.466 343.144 312.125 342.121 311.614 342.121Z" fill="white"/>
<path d="M329.169 340.417C328.317 340.417 327.806 340.758 327.294 341.61C326.953 342.292 326.783 342.973 326.783 343.826C326.783 344.678 326.953 345.701 327.294 346.553C327.976 348.598 328.998 349.621 330.362 349.621H331.044H331.385C331.555 349.621 331.726 349.791 331.726 349.962C331.726 350.473 331.215 350.814 330.363 350.985C329.681 351.155 329 351.155 328.488 351.155C327.125 351.155 325.761 350.644 324.738 349.451C323.715 348.428 323.204 347.065 323.204 345.701C323.204 343.997 323.886 342.463 325.079 341.27C326.272 339.907 327.976 339.225 329.851 339.225C332.067 339.225 333.771 340.077 335.135 341.611C336.498 343.145 337.01 344.849 337.01 347.065C337.01 348.94 336.499 350.815 335.476 352.689C334.453 354.393 333.26 355.757 331.556 356.95C330.533 357.632 329.34 358.484 327.977 359.166C326.273 360.018 325.08 360.529 324.227 360.529C324.057 360.529 324.057 360.529 323.886 360.359C323.886 360.359 323.716 360.189 323.716 360.018C323.716 359.677 324.057 359.507 324.739 359.336C327.636 358.313 330.023 356.268 331.727 353.2C332.579 351.496 333.09 349.621 333.09 347.576C333.09 346.553 332.92 345.531 332.579 344.508C332.238 343.315 331.727 342.463 331.216 341.781C330.532 340.758 329.85 340.417 329.169 340.417Z" fill="white"/>
<path d="M347.746 356.608C349.28 356.608 349.962 355.415 349.962 352.858C349.962 350.642 349.451 348.938 348.428 347.745C347.917 347.234 347.405 346.893 346.894 346.893C346.553 346.893 346.212 347.063 345.701 347.234C345.531 347.404 345.36 347.404 345.19 347.404C345.02 347.404 345.02 347.404 345.02 347.234C345.02 347.234 344.85 347.064 344.85 346.893C344.85 346.552 345.191 346.382 345.702 346.041C346.554 345.53 347.406 345.189 348.429 345.189C349.452 345.189 350.304 345.53 351.156 346.041C352.008 346.552 352.69 347.404 353.031 348.257C353.542 349.109 353.713 350.132 353.713 351.325C353.713 353.2 353.031 354.734 351.668 355.927C350.305 357.12 348.6 357.802 346.896 357.802C345.533 357.802 344.339 357.461 343.146 356.779C341.442 355.586 340.419 353.882 339.908 351.836C339.738 351.154 339.738 350.472 339.738 349.62C339.738 347.404 340.249 345.359 341.442 343.484C342.805 341.268 344.68 339.564 347.066 338.2C347.748 337.859 348.429 337.518 349.111 337.177C350.474 336.666 351.668 336.325 352.52 336.325C353.031 336.325 353.202 336.495 353.202 336.836C353.202 337.006 352.691 337.177 351.668 337.518C350.986 337.688 350.475 338.029 349.793 338.2C349.111 338.371 348.6 338.882 347.918 339.393C347.748 339.563 347.407 339.904 346.895 340.416C346.725 340.757 346.384 341.098 345.872 341.609C344.509 343.654 343.827 345.87 343.827 348.597C343.827 349.79 343.997 350.983 344.338 352.176C344.679 353.54 345.361 354.733 346.042 355.414C346.553 356.267 347.235 356.608 347.746 356.608Z" fill="white"/>
<path d="M366.153 346.723C366.153 347.064 366.494 347.405 367.005 347.575C367.683 347.858 368.119 347.964 368.368 348.086C369.561 349.109 370.243 350.472 370.243 352.006C370.243 353.029 369.902 354.051 369.22 354.903C368.538 355.755 367.686 356.266 366.663 356.778C365.47 357.289 364.277 357.63 362.743 357.63C361.55 357.63 360.357 357.46 359.334 357.119C356.948 356.267 355.755 354.903 355.755 353.029C355.755 352.177 355.925 351.495 356.266 350.984C356.436 350.643 356.607 350.473 356.777 350.302C357.288 349.961 357.97 349.62 358.822 349.109C359.333 348.939 359.504 348.768 359.674 348.768L359.504 348.598C359.334 348.428 359.163 348.428 358.993 348.257C358.823 348.087 358.482 347.916 357.8 347.405C356.777 346.553 356.266 345.36 356.266 344.167C356.266 342.122 357.289 340.758 359.334 339.736C360.357 339.225 361.55 339.054 362.913 339.054C365.47 339.054 367.344 339.736 368.367 341.099C368.878 341.781 369.049 342.292 369.049 343.144C369.049 344.678 368.267 345.778 366.562 346.289C366.394 346.63 366.153 346.723 366.153 346.723ZM361.211 349.45C360.7 349.45 360.359 349.961 359.848 350.984C359.678 351.495 359.507 352.007 359.507 352.688C359.507 354.051 360.018 355.245 361.041 355.926C361.552 356.267 362.234 356.437 363.086 356.437C363.938 356.437 364.62 356.096 365.302 355.585C365.984 355.074 366.325 354.392 366.325 353.54C366.325 353.199 365.814 351.665 365.132 351.154C364.791 350.813 364.109 350.472 363.257 349.961C362.233 349.62 361.552 349.45 361.211 349.45ZM364.79 346.212C365.131 346.212 365.472 345.701 365.813 344.848C365.983 344.507 365.983 344.166 365.983 343.655C365.983 342.632 365.642 341.78 365.131 341.098C364.62 340.416 363.768 340.075 362.915 340.075C362.233 340.075 361.552 340.245 360.87 340.757C360.359 341.268 360.018 341.78 360.018 342.632C360.018 343.314 360.359 343.825 360.87 344.336C361.04 344.506 361.552 344.847 362.063 345.018C362.404 345.188 362.915 345.359 363.597 345.7C364.449 346.212 364.79 346.212 364.79 346.212Z" fill="white"/>
<path fill-rule="evenodd" clip-rule="evenodd" d="M220.089 159.242C218.555 155.322 218.214 153.788 213.953 154.64C209.692 155.663 210.374 161.969 210.374 161.969C228.099 196.056 251.961 196.909 251.961 196.909C229.293 190.091 221.623 163.162 220.089 159.242Z" fill="white"/>
<path fill-rule="evenodd" clip-rule="evenodd" d="M318.261 114.417C308.887 118.167 300.706 122.939 309.739 127.2C318.943 131.29 323.033 131.802 327.805 131.631C332.577 131.461 340.929 133.506 338.883 145.607C336.667 157.708 328.486 206.112 262.698 198.783C262.698 198.783 284.173 215.486 320.306 195.374C356.268 175.262 361.722 146.97 359.677 132.653C359.677 132.653 358.995 112.371 341.44 110.667C341.44 110.838 331.043 109.304 318.261 114.417Z" fill="white"/>
<path fill-rule="evenodd" clip-rule="evenodd" d="M291.672 129.757C206.965 146.289 210.033 127.2 246.847 113.565C283.661 99.93 308.034 109.475 330.02 108.281C352.006 107.087 340.587 97.0319 340.587 97.0319C328.656 86.4649 320.135 91.067 306.841 90.385C293.717 89.533 248.381 103.509 239.007 107.429C229.633 111.519 200.488 119.019 209.01 137.937C217.532 157.027 291.672 129.757 291.672 129.757Z" fill="white"/>
<path fill-rule="evenodd" clip-rule="evenodd" d="M369.903 123.621C374.334 122.428 382.345 131.632 376.209 138.279C370.244 144.926 365.642 150.38 359.165 154.471C359.165 154.471 394.786 140.495 389.503 123.963C384.219 107.431 380.47 107.601 376.72 108.112C376.72 108.112 356.949 110.498 359.506 118.679C362.063 126.689 365.472 124.984 369.903 123.621Z" fill="white"/>
<path fill-rule="evenodd" clip-rule="evenodd" d="M356.268 197.932C343.826 204.92 321.84 210.033 312.466 212.249C303.092 214.635 289.116 214.976 272.584 218.214C250.086 222.475 206.454 209.692 204.239 209.181C199.637 207.988 193.501 204.75 194.013 206.965C194.865 209.692 203.046 212.419 203.046 212.419C208.5 215.487 229.293 218.384 237.986 220.259C246.678 221.963 250.087 223.497 261.506 222.816C272.925 221.964 277.868 225.713 312.467 220.43C346.895 215.146 355.928 204.75 376.381 194.694C396.833 184.638 401.435 175.775 401.435 175.775C386.606 190.432 368.88 190.944 356.268 197.932Z" fill="white"/>
<path fill-rule="evenodd" clip-rule="evenodd" d="M229.122 154.47C229.122 154.47 237.473 155.152 246.677 152.936C251.279 151.913 255.71 148.675 254.858 153.277C254.347 155.663 254.858 163.333 259.801 171.684C264.062 179.013 266.959 180.888 274.288 183.955C285.878 188.727 290.309 185.148 293.718 187.023C293.718 187.023 284.344 194.181 261.846 188.386C239.348 182.591 230.145 171.854 224.691 156.514C224.52 156.515 222.986 152.936 229.122 154.47Z" fill="white"/>
</g>
<defs>
<clipPath id="clip0_777_788">
<rect width="595.276" height="500" fill="white"/>
</clipPath>
</defs>
</svg>
