<svg width="96" height="96" viewBox="0 0 96 96" fill="none" xmlns="http://www.w3.org/2000/svg">
<path d="M67.1716 7H27C25.8954 7 25 7.8954 25 9V87C25 88.1046 25.8954 89 27 89H85C86.1046 89 87 88.1046 87 87V26.8284C87 26.298 86.7893 25.7893 86.4142 25.4142L68.5858 7.5858C68.2107 7.2107 67.702 7 67.1716 7Z" fill="white" stroke="#979593" stroke-width="2" stroke-miterlimit="10"/>
<path d="M67 7V25C67 26.1046 67.8954 27 69 27H87" stroke="#979593" stroke-width="2" stroke-miterlimit="10"/>
<path d="M51 61H41V59H51C51.5523 59 52 59.4477 52 60C52 60.5523 51.5523 61 51 61ZM51 55H41V53H51C51.5523 53 52 53.4477 52 54C52 54.5523 51.5523 55 51 55ZM51 49H41V47H51C51.5523 47 52 47.4477 52 48C52 48.5523 51.5523 49 51 49ZM51 43H41V41H51C51.5523 41 52 41.4477 52 42C52 42.5523 51.5523 43 51 43ZM51 67H41V65H51C51.5523 65 52 65.4477 52 66C52 66.5523 51.5523 67 51 67ZM79 61H69C68.4477 61 68 60.5523 68 60C68 59.4477 68.4477 59 69 59H79C79.5523 59 80 59.4477 80 60C80 60.5523 79.5523 61 79 61ZM79 67H69C68.4477 67 68 66.5523 68 66C68 65.4477 68.4477 65 69 65H79C79.5523 65 80 65.4477 80 66C80 66.5523 79.5523 67 79 67ZM79 55H69C68.4477 55 68 54.5523 68 54C68 53.4477 68.4477 53 69 53H79C79.5523 53 80 53.4477 80 54C80 54.5523 79.5523 55 79 55ZM79 49H69C68.4477 49 68 48.5523 68 48C68 47.4477 68.4477 47 69 47H79C79.5523 47 80 47.4477 80 48C80 48.5523 79.5523 49 79 49ZM79 43H69C68.4477 43 68 42.5523 68 42C68 41.4477 68.4477 41 69 41H79C79.5523 41 80 41.4477 80 42C80 42.5523 79.5523 43 79 43ZM65 61H55C54.4477 61 54 60.5523 54 60C54 59.4477 54.4477 59 55 59H65C65.5523 59 66 59.4477 66 60C66 60.5523 65.5523 61 65 61ZM65 67H55C54.4477 67 54 66.5523 54 66C54 65.4477 54.4477 65 55 65H65C65.5523 65 66 65.4477 66 66C66 66.5523 65.5523 67 65 67ZM65 55H55C54.4477 55 54 54.5523 54 54C54 53.4477 54.4477 53 55 53H65C65.5523 53 66 53.4477 66 54C66 54.5523 65.5523 55 65 55ZM65 49H55C54.4477 49 54 48.5523 54 48C54 47.4477 54.4477 47 55 47H65C65.5523 47 66 47.4477 66 48C66 48.5523 65.5523 49 65 49ZM65 43H55C54.4477 43 54 42.5523 54 42C54 41.4477 54.4477 41 55 41H65C65.5523 41 66 41.4477 66 42C66 42.5523 65.5523 43 65 43Z" fill="#C8C6C4"/>
<path d="M12 74H44C46.2091 74 48 72.2091 48 70V38C48 35.7909 46.2091 34 44 34H12C9.7909 34 8 35.7909 8 38V70C8 72.2091 9.7909 74 12 74Z" fill="#107C41"/>
<path d="M23.4588 52.3281H21.5923C21.5582 52.0866 21.4886 51.8722 21.3835 51.6847C21.2784 51.4943 21.1435 51.3324 20.9787 51.1989C20.8139 51.0653 20.6236 50.9631 20.4077 50.892C20.1946 50.821 19.9631 50.7855 19.7131 50.7855C19.2614 50.7855 18.8679 50.8977 18.5327 51.1222C18.1974 51.3437 17.9375 51.6676 17.7528 52.0938C17.5682 52.517 17.4759 53.0312 17.4759 53.6364C17.4759 54.2585 17.5682 54.7812 17.7528 55.2045C17.9403 55.6278 18.2017 55.9474 18.5369 56.1634C18.8722 56.3793 19.2599 56.4872 19.7003 56.4872C19.9474 56.4872 20.1761 56.4545 20.3864 56.3892C20.5994 56.3239 20.7884 56.2287 20.9531 56.1037C21.1179 55.9759 21.2543 55.821 21.3622 55.6392C21.473 55.4574 21.5497 55.25 21.5923 55.017L23.4588 55.0256C23.4105 55.4261 23.2898 55.8125 23.0966 56.1847C22.9063 56.554 22.6491 56.8849 22.3253 57.1776C22.0043 57.4673 21.6207 57.6974 21.1747 57.8679C20.7315 58.0355 20.2301 58.1193 19.6705 58.1193C18.892 58.1193 18.196 57.9432 17.5824 57.5909C16.9716 57.2386 16.4886 56.7287 16.1335 56.0611C15.7812 55.3935 15.6051 54.5852 15.6051 53.6364C15.6051 52.6847 15.7841 51.875 16.142 51.2074C16.5 50.5398 16.9858 50.0312 17.5994 49.6818C18.2131 49.3295 18.9034 49.1534 19.6705 49.1534C20.1761 49.1534 20.6449 49.2244 21.0767 49.3665C21.5114 49.5085 21.8963 49.7159 22.2315 49.9886C22.5668 50.2585 22.8395 50.5895 23.0497 50.9815C23.2628 51.3736 23.3991 51.8224 23.4588 52.3281ZM29.5163 51.7827C29.4822 51.4389 29.3359 51.1719 29.0774 50.9815C28.8189 50.7912 28.468 50.696 28.0249 50.696C27.7237 50.696 27.4695 50.7386 27.2621 50.8239C27.0547 50.9062 26.8956 51.0213 26.7848 51.169C26.6768 51.3168 26.6229 51.4844 26.6229 51.6719C26.6172 51.8281 26.6499 51.9645 26.7209 52.081C26.7947 52.1974 26.8956 52.2983 27.0234 52.3835C27.1513 52.4659 27.299 52.5384 27.4666 52.6009C27.6342 52.6605 27.8132 52.7116 28.0036 52.7543L28.7876 52.9418C29.1683 53.027 29.5178 53.1406 29.8359 53.2827C30.1541 53.4247 30.4297 53.5994 30.6626 53.8068C30.8956 54.0142 31.076 54.2585 31.2038 54.5398C31.3345 54.821 31.4013 55.1435 31.4041 55.5071C31.4013 56.0412 31.2649 56.5043 30.995 56.8963C30.728 57.2855 30.3416 57.5881 29.8359 57.804C29.3331 58.017 28.7266 58.1236 28.0163 58.1236C27.3118 58.1236 26.6982 58.0156 26.1754 57.7997C25.6555 57.5838 25.2493 57.2642 24.9567 56.8409C24.6669 56.4148 24.5149 55.8878 24.5007 55.2599H26.2862C26.3061 55.5526 26.3899 55.7969 26.5376 55.9929C26.6882 56.1861 26.8885 56.3324 27.1385 56.4318C27.3913 56.5284 27.6768 56.5767 27.995 56.5767C28.3075 56.5767 28.5788 56.5312 28.8089 56.4403C29.0419 56.3494 29.2223 56.223 29.3501 56.0611C29.478 55.8991 29.5419 55.7131 29.5419 55.5028C29.5419 55.3068 29.4837 55.142 29.3672 55.0085C29.2536 54.875 29.0859 54.7614 28.8643 54.6676C28.6456 54.5739 28.3771 54.4886 28.0589 54.4119L27.1087 54.1733C26.3729 53.9943 25.7919 53.7145 25.3658 53.3338C24.9396 52.9531 24.728 52.4403 24.7308 51.7955C24.728 51.267 24.8686 50.8054 25.1527 50.4105C25.4396 50.0156 25.8331 49.7074 26.3331 49.4858C26.8331 49.2642 27.4013 49.1534 28.0376 49.1534C28.6854 49.1534 29.2507 49.2642 29.7337 49.4858C30.2195 49.7074 30.5973 50.0156 30.8672 50.4105C31.1371 50.8054 31.2763 51.2628 31.2848 51.7827H29.5163ZM34.2219 49.2727L36.3313 55.9034H36.4123L38.5259 49.2727H40.5714L37.5629 58H35.185L32.1722 49.2727H34.2219Z" fill="white"/>
</svg>
