<svg width="96" height="96" viewBox="0 0 96 96" fill="none" xmlns="http://www.w3.org/2000/svg">
<path d="M67.1716 7H27C25.8954 7 25 7.8954 25 9V87C25 88.1046 25.8954 89 27 89H85C86.1046 89 87 88.1046 87 87V26.8284C87 26.298 86.7893 25.7893 86.4142 25.4142L68.5858 7.5858C68.2107 7.2107 67.702 7 67.1716 7Z" fill="white" stroke="#979593" stroke-width="2" stroke-miterlimit="10"/>
<path d="M67 7V25C67 26.1046 67.8954 27 69 27H87" stroke="#979593" stroke-width="2" stroke-miterlimit="10"/>
<path d="M51 61H41V59H51C51.5523 59 52 59.4477 52 60C52 60.5523 51.5523 61 51 61ZM51 55H41V53H51C51.5523 53 52 53.4477 52 54C52 54.5523 51.5523 55 51 55ZM51 49H41V47H51C51.5523 47 52 47.4477 52 48C52 48.5523 51.5523 49 51 49ZM51 43H41V41H51C51.5523 41 52 41.4477 52 42C52 42.5523 51.5523 43 51 43ZM51 67H41V65H51C51.5523 65 52 65.4477 52 66C52 66.5523 51.5523 67 51 67ZM79 61H69C68.4477 61 68 60.5523 68 60C68 59.4477 68.4477 59 69 59H79C79.5523 59 80 59.4477 80 60C80 60.5523 79.5523 61 79 61ZM79 67H69C68.4477 67 68 66.5523 68 66C68 65.4477 68.4477 65 69 65H79C79.5523 65 80 65.4477 80 66C80 66.5523 79.5523 67 79 67ZM79 55H69C68.4477 55 68 54.5523 68 54C68 53.4477 68.4477 53 69 53H79C79.5523 53 80 53.4477 80 54C80 54.5523 79.5523 55 79 55ZM79 49H69C68.4477 49 68 48.5523 68 48C68 47.4477 68.4477 47 69 47H79C79.5523 47 80 47.4477 80 48C80 48.5523 79.5523 49 79 49ZM79 43H69C68.4477 43 68 42.5523 68 42C68 41.4477 68.4477 41 69 41H79C79.5523 41 80 41.4477 80 42C80 42.5523 79.5523 43 79 43ZM65 61H55C54.4477 61 54 60.5523 54 60C54 59.4477 54.4477 59 55 59H65C65.5523 59 66 59.4477 66 60C66 60.5523 65.5523 61 65 61ZM65 67H55C54.4477 67 54 66.5523 54 66C54 65.4477 54.4477 65 55 65H65C65.5523 65 66 65.4477 66 66C66 66.5523 65.5523 67 65 67ZM65 55H55C54.4477 55 54 54.5523 54 54C54 53.4477 54.4477 53 55 53H65C65.5523 53 66 53.4477 66 54C66 54.5523 65.5523 55 65 55ZM65 49H55C54.4477 49 54 48.5523 54 48C54 47.4477 54.4477 47 55 47H65C65.5523 47 66 47.4477 66 48C66 48.5523 65.5523 49 65 49ZM65 43H55C54.4477 43 54 42.5523 54 42C54 41.4477 54.4477 41 55 41H65C65.5523 41 66 41.4477 66 42C66 42.5523 65.5523 43 65 43Z" fill="#C8C6C4"/>
<path d="M12 74H44C46.2091 74 48 72.2091 48 70V38C48 35.7909 46.2091 34 44 34H12C9.7909 34 8 35.7909 8 38V70C8 72.2091 9.7909 74 12 74Z" fill="#107C41"/>
<path d="M14.4886 49.2727L16.2486 52.2472H16.3168L18.0852 49.2727H20.169L17.5057 53.6364L20.2287 58H18.1065L16.3168 55.0213H16.2486L14.4588 58H12.3452L15.0767 53.6364L12.3963 49.2727H14.4886ZM21.3366 58V49.2727H23.1818V56.4787H26.9233V58H21.3366ZM32.8796 51.7827C32.8455 51.4389 32.6992 51.1719 32.4407 50.9815C32.1822 50.7912 31.8313 50.696 31.3881 50.696C31.087 50.696 30.8327 50.7386 30.6254 50.8239C30.418 50.9062 30.2589 51.0213 30.1481 51.169C30.0401 51.3168 29.9862 51.4844 29.9862 51.6719C29.9805 51.8281 30.0131 51.9645 30.0842 52.081C30.158 52.1974 30.2589 52.2983 30.3867 52.3835C30.5146 52.4659 30.6623 52.5384 30.8299 52.6009C30.9975 52.6605 31.1765 52.7116 31.3668 52.7543L32.1509 52.9418C32.5316 53.027 32.881 53.1406 33.1992 53.2827C33.5174 53.4247 33.793 53.5994 34.0259 53.8068C34.2589 54.0142 34.4393 54.2585 34.5671 54.5398C34.6978 54.821 34.7646 55.1435 34.7674 55.5071C34.7646 56.0412 34.6282 56.5043 34.3583 56.8963C34.0913 57.2855 33.7049 57.5881 33.1992 57.804C32.6964 58.017 32.0898 58.1236 31.3796 58.1236C30.6751 58.1236 30.0614 58.0156 29.5387 57.7997C29.0188 57.5838 28.6126 57.2642 28.32 56.8409C28.0302 56.4148 27.8782 55.8878 27.864 55.2599H29.6495C29.6694 55.5526 29.7532 55.7969 29.9009 55.9929C30.0515 56.1861 30.2518 56.3324 30.5018 56.4318C30.7546 56.5284 31.0401 56.5767 31.3583 56.5767C31.6708 56.5767 31.9421 56.5312 32.1722 56.4403C32.4052 56.3494 32.5856 56.223 32.7134 56.0611C32.8413 55.8991 32.9052 55.7131 32.9052 55.5028C32.9052 55.3068 32.8469 55.142 32.7305 55.0085C32.6168 54.875 32.4492 54.7614 32.2276 54.6676C32.0089 54.5739 31.7404 54.4886 31.4222 54.4119L30.4719 54.1733C29.7362 53.9943 29.1552 53.7145 28.729 53.3338C28.3029 52.9531 28.0913 52.4403 28.0941 51.7955C28.0913 51.267 28.2319 50.8054 28.516 50.4105C28.8029 50.0156 29.1964 49.7074 29.6964 49.4858C30.1964 49.2642 30.7646 49.1534 31.4009 49.1534C32.0487 49.1534 32.614 49.2642 33.0969 49.4858C33.5827 49.7074 33.9606 50.0156 34.2305 50.4105C34.5004 50.8054 34.6396 51.2628 34.6481 51.7827H32.8796ZM37.7386 49.2727L39.4986 52.2472H39.5668L41.3352 49.2727H43.419L40.7557 53.6364L43.4787 58H41.3565L39.5668 55.0213H39.4986L37.7088 58H35.5952L38.3267 53.6364L35.6463 49.2727H37.7386Z" fill="white"/>
</svg>
