<svg height="211.891385" viewBox="0 0 38.82443 17.496895" width="471.939904" xmlns="http://www.w3.org/2000/svg" xmlns:xlink="http://www.w3.org/1999/xlink"><clipPath id="a"><path d="m0 0h145.953v93.237999h-145.953z"/></clipPath><symbol id="b" overflow="visible"/><symbol id="c" overflow="visible"/><symbol id="d" overflow="visible"/><symbol id="e" overflow="visible"/><symbol id="f" overflow="visible"/><symbol id="g" overflow="visible"/><symbol id="h" overflow="visible"/><symbol id="i" overflow="visible"/><symbol id="j" overflow="visible"/><symbol id="k" overflow="visible"/><clipPath id="l"><path d="m90.131 17.325c-9.486 1.151-19.185 4.306-19.828 13.864-.298 4.469 1.063 7.827 2.598 11.068-3.856-3.836-9.421-6.911-17.227-6.161 4.753 1.362 10.364 3.966 13.379 7.407.636.732 1.57 2.001 1.349 3.08-.367 1.815-3.677 1.446-5.681 1.543 4.155 1.683 8.801 4.715 14.727 4.521 2.962-.094 5.139-1.916 4.909-5.289-.417-6.063-4.835-11.245-5.299-18.096-.515-7.728 4.858-10.564 10.882-11.833.119.036.311 0 .36-.04.039-.03.004-.064-.163-.064z"/></clipPath><linearGradient id="m" gradientTransform="matrix(-14.0793 -14.0793 -14.0793 14.0793 1398.4536 -1264.9014)" gradientUnits="userSpaceOnUse" x1="0" x2="1" y1="93.2388" y2="93.2388"><stop offset="0" stop-color="#fdb913"/><stop offset=".0942" stop-color="#f2af1c"/><stop offset=".479" stop-color="#d49632"/><stop offset=".7947" stop-color="#c28739"/><stop offset="1" stop-color="#bb813b"/></linearGradient><g transform="matrix(.35277779 0 0 .35277779 -357.872936 -107.664814)"><use fill="#4c4c4c" height="100%" width="100%" x="195.8131" xlink:href="#c" y="296.1666"/><use fill="#4c4c4c" height="100%" width="100%" x="173.96919" xlink:href="#c" y="324.17459"/><use fill="#4c4c4c" height="100%" width="100%" x="259.09839" xlink:href="#c" y="324.17459"/><use fill="#4c4c4c" height="100%" width="100%" x="269.254" xlink:href="#c" y="324.17459"/><use fill="#4c4c4c" height="100%" width="100%" x="67.888901" xlink:href="#c" y="338.17859"/><use fill="#4c4c4c" height="100%" width="100%" x="194.7097" xlink:href="#c" y="338.17859"/><use fill="#4c4c4c" height="100%" width="100%" x="878.74841" xlink:href="#b" y="750.02759"/><use fill="#4c4c4c" height="100%" width="100%" x="846.87042" xlink:href="#b" y="764.03162"/><use fill="#4c4c4c" height="100%" width="100%" x="687.73871" xlink:href="#c" y="778.03558"/><use fill="#4c4c4c" height="100%" width="100%" x="793.28802" xlink:href="#c" y="778.03558"/><use fill="#4c4c4c" height="100%" width="100%" x="711.25311" xlink:href="#d" y="547.97192"/><use fill="#4c4c4c" height="100%" width="100%" x="878.71271" xlink:href="#d" y="547.97192"/><use fill="#4c4c4c" height="100%" width="100%" x="878.79175" xlink:href="#e" y="561.97192"/><use fill="#4c4c4c" height="100%" width="100%" x="878.67828" xlink:href="#f" y="575.97192"/><use fill="#4c4c4c" height="100%" width="100%" x="661.33978" xlink:href="#g" y="589.97192"/><use fill="#4c4c4c" height="100%" width="100%" x="712.99585" xlink:href="#g" y="589.97192"/><use fill="#4c4c4c" height="100%" width="100%" x="762.72443" xlink:href="#g" y="589.97192"/><use fill="#4c4c4c" height="100%" width="100%" x="809.49805" xlink:href="#g" y="589.97192"/><use fill="#4c4c4c" height="100%" width="100%" x="860.82874" xlink:href="#g" y="589.97192"/><use fill="#4c4c4c" height="100%" width="100%" x="878.74133" xlink:href="#g" y="589.97192"/><use fill="#4c4c4c" height="100%" width="100%" x="672.73254" xlink:href="#h" y="617.97192"/><use fill="#4c4c4c" height="100%" width="100%" x="689.47589" xlink:href="#h" y="617.97192"/><use fill="#4c4c4c" height="100%" width="100%" x="728.09894" xlink:href="#h" y="617.97192"/><use fill="#4c4c4c" height="100%" width="100%" x="739.70221" xlink:href="#h" y="617.97192"/><use fill="#4c4c4c" height="100%" width="100%" x="765.02002" xlink:href="#h" y="617.97192"/><use fill="#4c4c4c" height="100%" width="100%" x="781.44989" xlink:href="#h" y="617.97192"/><use fill="#4c4c4c" height="100%" width="100%" x="828.80426" xlink:href="#h" y="617.97192"/><use fill="#4c4c4c" height="100%" width="100%" x="860.76501" xlink:href="#h" y="617.97192"/><use fill="#4c4c4c" height="100%" width="100%" x="878.74841" xlink:href="#h" y="617.97192"/><use fill="#97172e" height="100%" width="100%" x="718.26837" xlink:href="#i" y="677.99011"/><use fill="#4c4c4c" height="100%" width="100%" x="127.0864" xlink:href="#b" y="446.46341"/><use fill="#4c4c4c" height="100%" width="100%" x="116.416" xlink:href="#c" y="501.0304"/><use fill="#4c4c4c" height="100%" width="100%" x="226.47791" xlink:href="#c" y="501.0304"/><use fill="#4c4c4c" height="100%" width="100%" x="66.034897" xlink:href="#c" y="529.03839"/><use fill="#4c4c4c" height="100%" width="100%" x="189.6283" xlink:href="#c" y="529.03839"/><use fill="#4c4c4c" height="100%" width="100%" x="115.8994" xlink:href="#b" y="649.81842"/><use fill="#4c4c4c" height="100%" width="100%" x="1026.0402" xlink:href="#c" y="651.02173"/><use fill="#4c4c4c" height="100%" width="100%" x="1133.8665" xlink:href="#c" y="651.02173"/><use fill="#4c4c4c" height="100%" width="100%" x="923.70837" xlink:href="#c" y="665.0257"/><use fill="#4c4c4c" height="100%" width="100%" x="961.92963" xlink:href="#c" y="665.0257"/><use fill="#4c4c4c" height="100%" width="100%" x="1065.021" xlink:href="#c" y="665.0257"/><use fill="#4c4c4c" height="100%" width="100%" x="1055.9355" xlink:href="#c" y="712.69873"/><use fill="#4c4c4c" height="100%" width="100%" x="978.93329" xlink:href="#c" y="746.36768"/><use fill="#4c4c4c" height="100%" width="100%" x="1011.5862" xlink:href="#c" y="760.3717"/><use fill="#4c4c4c" height="100%" width="100%" x="856.31702" xlink:href="#b" y="191.3671"/><use fill="#4c4c4c" height="100%" width="100%" x="725.44983" xlink:href="#c" y="259.94681"/><use fill="#4c4c4c" height="100%" width="100%" x="741.08551" xlink:href="#c" y="259.94681"/><use fill="#4c4c4c" height="100%" width="100%" x="818.2713" xlink:href="#c" y="259.94681"/><use fill="#4c4c4c" height="100%" width="100%" x="819.08936" xlink:href="#j" y="287.94681"/><use fill="#4c4c4c" height="100%" width="100%" x="981.13623" xlink:href="#c" y="177.3598"/><use fill="#4c4c4c" height="100%" width="100%" x="1069.3137" xlink:href="#c" y="177.3598"/><use fill="#4c4c4c" height="100%" width="100%" x="960.03839" xlink:href="#c" y="191.3638"/><use fill="#4c4c4c" height="100%" width="100%" x="1099.8993" xlink:href="#c" y="191.3638"/><use fill="#4c4c4c" height="100%" width="100%" x="1055.037" xlink:href="#c" y="205.3678"/><use fill="#4c4c4c" height="100%" width="100%" x="1094.8782" xlink:href="#c" y="205.3678"/><use fill="#4c4c4c" height="100%" width="100%" x="979.25659" xlink:href="#c" y="296.0947"/><use fill="#4c4c4c" height="100%" width="100%" x="1012.3433" xlink:href="#c" y="296.0947"/><use fill="#4c4c4c" height="100%" width="100%" x="856.18378" xlink:href="#c" y="362.81729"/><use fill="#4c4c4c" height="100%" width="100%" x="712.27917" xlink:href="#b" y="404.82932"/><use fill="#4c4c4c" height="100%" width="100%" x="786.78479" xlink:href="#b" y="404.82932"/><use fill="#4c4c4c" height="100%" width="100%" x="1022.1794" xlink:href="#c" y="420.461"/><use fill="#4c4c4c" height="100%" width="100%" x="1135.4498" xlink:href="#b" y="434.465"/><use fill="#fff" height="100%" width="100%" x="427.2103" xlink:href="#k" y="800.03052"/></g><path clip-path="url(#a)" d="m141.51 71.156-.717-.486c-2.493-1.692-3.177-2.543-3.177-3.953 0-1.788 1.692-2.424 3.141-2.424 2.391 0 3.059 1.057 3.082 1.093.126.229.319.858.346 1.133.026.175.072.5.446.5.418 0 .418-.457.418-.761 0-1.307.069-2.072.1-2.398.01-.095.015-.156.015-.184 0-.389-.346-.389-.476-.389-.193 0-.376 0-.839-.108-.597-.143-1.61-.293-2.662-.293-3.529 0-5.81 1.887-5.81 4.807 0 1.867 1.073 3.43 3.702 5.394l1.148.863c2.247 1.67 3.098 2.454 3.098 4.071 0 1.865-1.369 3.024-3.572 3.024-1.581 0-3.403-.589-3.777-2.246-.081-.318-.081-.643-.081-.837 0-.37-.229-.502-.445-.502-.155 0-.415.081-.415.603-.007.081-.016.186-.027.312-.044.493-.118 1.318-.118 2.285 0 .659.024.876.498 1.116 1.299.612 3.065.679 3.765.679 1.828 0 3.22-.301 4.135-.896 1.626-1.059 2.45-2.52 2.45-4.341-.002-2.258-1.226-4.013-4.228-6.062" fill="#162b75" transform="matrix(.26458333 0 0 .26458333 .132292 -4.451615)"/><path clip-path="url(#a)" d="m23.441 59.078c-.599 0-1.372.041-1.885.069-.22.013-.38.021-.435.021-.126 0-.375-.013-.699-.026-.608-.027-1.444-.064-2.217-.064-.31 0-.886 0-.886.47 0 .151.074.408.558.408.312 0 .737 0 1.028.094.225.114.259.348.259.478 0 .262-.146.73-.256 1.066-.606 1.978-4.284 11.601-6.134 15.965l-5.513-14.705c-.405-1.047-.789-2.038-.789-2.386 0-.162.043-.291.248-.385.215-.096.693-.128 1.038-.128.477 0 .528-.308.528-.439 0-.438-.647-.438-1.033-.438-.752 0-1.602.039-2.165.066-.287.013-.503.024-.602.024-.118 0-.384-.011-.737-.024-.712-.026-1.789-.066-2.745-.066-.425 0-1.004 0-1.004.438 0 .267.182.439.467.439.162 0 .655 0 1.069.108.937.271 1.353.526 1.99 2.155l7.291 18.242.082.207c.543 1.371.707 1.785 1.204 1.785.373 0 .51-.304.964-1.313.132-.291.293-.647.494-1.08.666-1.418 1.929-4.442 3.677-8.628l1.36-3.276c1.063-2.56 1.902-4.582 2.141-5.19.779-1.963 1.208-2.455 1.548-2.689.508-.32 1.108-.32 1.304-.32.51 0 .586-.274.586-.439 0-.292-.247-.439-.736-.439" fill="#c48429" transform="matrix(.26458333 0 0 .26458333 .132292 -4.451615)"/><path clip-path="url(#a)" d="m29.872 81.2c-.207 0-.732-.053-1.123-.113-.563-.087-.645-.356-.733-1.102-.114-.999-.114-2.889-.114-5.282v-4.326c0-3.81 0-4.495.026-5.263.058-.835.185-1.041.715-1.151.267-.055.424-.055.591-.055.211 0 .426-.213.426-.424 0-.282-.211-.425-.626-.425-.564 0-1.583.03-2.147.047-.213.007-.36.012-.392.012-.041 0-.204-.006-.436-.013-.568-.017-1.537-.046-2.13-.046-.415 0-.627.143-.627.425 0 .201.175.424.424.424.16 0 .463.029.733.085.372.077.572.271.631 1.122.056.771.056 1.456.056 5.262v4.326c0 2.003-.017 4.194-.142 5.282-.09.763-.174 1.029-.495 1.105-.212.054-.513.109-.724.109-.267 0-.427.217-.427.426 0 .157.082.425.629.425.55 0 1.494-.045 2.059-.069.237-.011.407-.018.449-.018.025 0 .122.004.273.01.538.022 1.797.077 2.901.077.581 0 .626-.327.626-.425-.001-.208-.158-.425-.423-.425" fill="#c48429" transform="matrix(.26458333 0 0 .26458333 .132292 -4.451615)"/><path clip-path="url(#a)" d="m51.304 63.059c-.684 0-1.281.025-1.692.042-.212.01-.374.016-.471.016-.095 0-.291-.006-.551-.015-.533-.017-1.33-.043-2.103-.043-.214 0-.714 0-.714.396 0 .271.171.453.425.453.189 0 .752.028 1.2.113.56.104.74.401.771 2.063l.248 11.71c-.259-.274-.59-.626-.976-1.033-1.252-1.33-2.967-3.149-4.628-4.868-2.665-2.742-5.201-5.408-6.717-7.002-.706-.741-1.174-1.234-1.304-1.365l-.118-.119c-.383-.394-.703-.694-1.02-.694-.524 0-.567.755-.567 1.463v14.044c0 2.188-.105 2.718-.566 2.845-.346.108-.786.135-.97.135-.239 0-.426.188-.426.426 0 .425.455.425.626.425.804 0 1.573-.043 2.033-.069.203-.01.349-.018.419-.018.063 0 .188.007.366.016.478.025 1.279.071 2.314.071.567 0 .686-.231.686-.425 0-.238-.188-.426-.427-.426-.265 0-.806-.036-1.212-.137-.515-.131-.754-.534-.813-2.589l-.271-10.967c1.075 1.16 3.445 3.648 6.176 6.513 2.653 2.77 6.327 6.394 6.612 6.645 1.505 1.383 1.74 1.558 2.084 1.558.425 0 .425-.341.425-1.98l.058-14.363c0-1.536.094-1.786.714-1.916.267-.054.453-.054.563-.054.293 0 .511-.238.511-.453 0-.398-.497-.398-.685-.398" fill="#c48429" transform="matrix(.26458333 0 0 .26458333 .132292 -4.451615)"/><path clip-path="url(#a)" d="m75.288 81.2c-.181 0-.739-.055-1.092-.113-.584-.087-.642-.334-.732-1.102-.128-1.099-.145-3.287-.145-5.282v-4.326c0-3.805 0-4.49.058-5.263.058-.836.18-1.042.685-1.15.295-.056.428-.056.595-.056.232 0 .452-.205.452-.424 0-.193-.113-.425-.656-.425-.524 0-1.468.028-2.041.045-.247.007-.424.014-.468.014-.027 0-.142-.004-.317-.01-.555-.016-1.712-.049-2.566-.049-.417 0-.627.143-.627.425 0 .201.174.424.426.424.213 0 .634.029.834.056.656.092.758.315.815 1.177.029.76.059 1.545.059 5.296v.439l-10.426-.001v-.438c0-3.771 0-4.555.029-5.322.054-.835.182-1.04.715-1.151.263-.055.423-.055.59-.055.211 0 .424-.213.424-.424 0-.282-.211-.425-.627-.425-.564 0-1.566.03-2.123.047-.209.007-.355.012-.386.012-.036 0-.172-.005-.372-.011-.579-.017-1.685-.048-2.54-.048-.415 0-.627.143-.627.425 0 .211.216.424.426.424.213 0 .633.029.834.056.674.095.791.344.846 1.152.058.771.058 1.456.058 5.261v4.326c0 2.392 0 4.279-.144 5.274l-.011.07c-.116.729-.178.971-.485 1.043-.211.054-.513.109-.724.109-.267 0-.426.217-.426.426 0 .157.082.425.629.425.549 0 1.507-.045 2.08-.069.241-.011.414-.018.456-.018.026 0 .12.004.27.01.531.022 1.77.077 2.875.077.581 0 .627-.327.627-.425 0-.207-.149-.426-.424-.426-.208 0-.731-.053-1.121-.113-.562-.087-.645-.356-.734-1.102-.115-.999-.115-2.863-.115-5.225l.001-2.373 10.425.001v2.372c0 2.345 0 4.196-.115 5.194-.091.772-.184 1.059-.526 1.136-.283.072-.523.109-.695.109-.265 0-.423.217-.423.426 0 .28.21.425.625.425.543 0 1.565-.047 2.114-.071.215-.01.365-.016.396-.016.034 0 .154.005.333.012.571.024 1.758.075 2.81.075.627 0 .658-.355.658-.425-.001-.211-.158-.425-.457-.425" fill="#162b75" transform="matrix(.26458333 0 0 .26458333 .132292 -4.451615)"/><path clip-path="url(#a)" d="m86.086 62.713c-7.098 0-10.289 5.73-10.289 9.798 0 4.747 3.175 9.856 10.145 9.856 5.931 0 10.401-4.398 10.401-10.231 0-5.636-4.122-9.423-10.257-9.423m.576 18.198c-4.661 0-7.792-3.643-7.792-9.063 0-4.862 2.643-7.766 7.071-7.766 3.663 0 7.362 2.706 7.362 8.745.001 7.695-5.533 8.084-6.641 8.084" fill="#162b75" transform="matrix(.26458333 0 0 .26458333 .132292 -4.451615)"/><path clip-path="url(#a)" d="m120.92 81.2c-.243 0-.889 0-1.573-.221-.829-.274-1.04-1.291-1.146-2.35l-1.731-15.058c-.09-.71-.374-.858-.599-.858-.339 0-.51.343-.604.529l-7.186 14.794-7.468-14.824c-.216-.435-.544-.499-.72-.499-.266 0-.466.249-.508.631l-1.845 16.004-.028.238c-.106.884-.198 1.43-.767 1.527l-.073.013c-.313.049-.471.073-.641.073-.266 0-.481.178-.481.396 0 .17.084.455.655.455.444 0 1.096-.036 1.57-.063.269-.014.479-.024.562-.024.063 0 .224.007.444.019.503.028 1.265.068 1.922.068.567 0 .687-.247.687-.455 0-.222-.229-.396-.427-.396-.188 0-.542-.035-.93-.139-.433-.101-.433-.381-.433-.474 0-.402 0-.858.028-1.221l.924-10.439c.467.998 1.331 2.761 2.052 4.231.372.762.705 1.443.927 1.901.654 1.371 2.369 4.584 2.975 5.693.496.901.681 1.24 1.063 1.24s.556-.318 1.094-1.424l5.814-11.908 1.147 11.723c.046.372.02.566-.002.637-.176.065-.29.223-.29.404 0 .362.436.434.922.48.94.088 3.785.146 4.348.146.452 0 .744-.18.744-.455 0-.228-.18-.394-.426-.394" fill="#162b75" transform="matrix(.26458333 0 0 .26458333 .132292 -4.451615)"/><path clip-path="url(#a)" d="m133.66 78.286c-.371 0-.44.348-.482.566-.143.97-.483 1.295-1.013 1.526-.625.245-1.818.245-2.458.245-2.506 0-2.753-.309-2.806-1.753-.021-.346-.012-1.927-.004-3.082.003-.456.004-.851.004-1.087l.002-1.997c.599.002 3.109.034 3.758.113.992.117 1.063.409 1.113.607.104.279.104.508.104.731 0 .312.199.452.396.452.275 0 .453-.269.453-.685 0-.151.058-1.065.114-1.571.037-.518.11-.858.157-1.083.028-.13.046-.216.046-.287 0-.314-.198-.427-.369-.427-.163 0-.275.119-.431.282l-.098.102c-.195.195-.517.225-1.047.276l-.06.006c-.41.04-2.388.057-4.139.057-.001-.013-.001-.023-.001-.035v-6.662c0-.014.001-.027.002-.038.606.003 3.175.035 3.555.085 1.386.174 1.521.34 1.639.611.099.25.126.621.126.782 0 .502.326.542.427.542.235 0 .396-.225.447-.438.039-.186.071-.611.111-1.146.015-.221.027-.408.039-.497.035-.409.099-.665.145-.854.033-.131.056-.225.056-.318 0-.432-.28-.453-.337-.453-.117 0-.22.045-.303.082-.033.015-.066.03-.076.035l-.156.027c-.238.036-.597.095-.975.117-.167.008-.765.013-1.777.013-1.396 0-3.199-.009-3.935-.013h-.332c-.038 0-.177-.004-.384-.011-.589-.017-1.707-.049-2.559-.049-.417 0-.628.144-.628.427 0 .211.214.424.426.424.229 0 .651.03.837.055.671.093.789.343.845 1.152.056.771.056 1.456.056 5.26v4.326c0 2.393 0 4.282-.141 5.275l-.013.076c-.114.725-.181.982-.456 1.032-.093.011-.196.03-.303.052-.16.031-.329.063-.451.063-.267 0-.424.216-.424.424 0 .159.081.425.626.425.432 0 1.053-.034 1.482-.058.543-.029 1.028-.029 1.086-.029.36 0 1.031 0 2.099.059l.626.018c.998.031 2.24.069 3.792.069.998 0 1.411 0 1.63-.801.148-.547.354-2.232.354-2.423.001-.54-.276-.597-.395-.597" fill="#162b75" transform="matrix(.26458333 0 0 .26458333 .132292 -4.451615)"/><path clip-path="url(#l)" d="m37.916 35.083 35.091-35.091 35.092 35.091-35.092 35.091z" fill="url(#m)" transform="matrix(.26458333 0 0 .26458333 .132292 -4.451615)"/></svg>